<svg id="visual" viewBox="0 0 960 540" width="960" height="540" xmlns="http://www.w3.org/2000/svg"
    xmlns:xlink="http://www.w3.org/1999/xlink" version="1.1">
    <rect x="0" y="0" width="960" height="540" fill="#13151A"></rect>
    <path
        d="M0 348L20 358.3C40 368.7 80 389.3 120 391.5C160 393.7 200 377.3 240 367C280 356.7 320 352.3 360 358.2C400 364 440 380 480 385.2C520 390.3 560 384.7 600 387.7C640 390.7 680 402.3 720 412.8C760 423.3 800 432.7 840 432.3C880 432 920 422 940 417L960 412L960 0L940 0C920 0 880 0 840 0C800 0 760 0 720 0C680 0 640 0 600 0C560 0 520 0 480 0C440 0 400 0 360 0C320 0 280 0 240 0C200 0 160 0 120 0C80 0 40 0 20 0L0 0Z"
        fill="#13151a"></path>
    <path
        d="M0 289L20 300.3C40 311.7 80 334.3 120 341C160 347.7 200 338.3 240 324C280 309.7 320 290.3 360 283.7C400 277 440 283 480 295.5C520 308 560 327 600 326.5C640 326 680 306 720 309.7C760 313.3 800 340.7 840 351.5C880 362.3 920 356.7 940 353.8L960 351L960 0L940 0C920 0 880 0 840 0C800 0 760 0 720 0C680 0 640 0 600 0C560 0 520 0 480 0C440 0 400 0 360 0C320 0 280 0 240 0C200 0 160 0 120 0C80 0 40 0 20 0L0 0Z"
        fill="#1c2537"></path>
    <path
        d="M0 208L20 206.3C40 204.7 80 201.3 120 208.5C160 215.7 200 233.3 240 234.5C280 235.7 320 220.3 360 220.5C400 220.7 440 236.3 480 244.2C520 252 560 252 600 245C640 238 680 224 720 226C760 228 800 246 840 255.2C880 264.3 920 264.7 940 264.8L960 265L960 0L940 0C920 0 880 0 840 0C800 0 760 0 720 0C680 0 640 0 600 0C560 0 520 0 480 0C440 0 400 0 360 0C320 0 280 0 240 0C200 0 160 0 120 0C80 0 40 0 20 0L0 0Z"
        fill="#243556"></path>
    <path
        d="M0 159L20 163.7C40 168.3 80 177.7 120 182C160 186.3 200 185.7 240 186.5C280 187.3 320 189.7 360 186C400 182.3 440 172.7 480 164C520 155.3 560 147.7 600 147.2C640 146.7 680 153.3 720 153.3C760 153.3 800 146.7 840 152C880 157.3 920 174.7 940 183.3L960 192L960 0L940 0C920 0 880 0 840 0C800 0 760 0 720 0C680 0 640 0 600 0C560 0 520 0 480 0C440 0 400 0 360 0C320 0 280 0 240 0C200 0 160 0 120 0C80 0 40 0 20 0L0 0Z"
        fill="#2d4677"></path>
    <path
        d="M0 78L20 79.2C40 80.3 80 82.7 120 86.3C160 90 200 95 240 93.8C280 92.7 320 85.3 360 84.5C400 83.7 440 89.3 480 88.3C520 87.3 560 79.7 600 84.2C640 88.7 680 105.3 720 111.3C760 117.3 800 112.7 840 105.8C880 99 920 90 940 85.5L960 81L960 0L940 0C920 0 880 0 840 0C800 0 760 0 720 0C680 0 640 0 600 0C560 0 520 0 480 0C440 0 400 0 360 0C320 0 280 0 240 0C200 0 160 0 120 0C80 0 40 0 20 0L0 0Z"
        fill="#38579a"></path>
</svg>